<svg xmlns="http://www.w3.org/2000/svg"  viewBox="0 0 128 128" width="64px" height="64px"><path fill="#97c655" d="M75.4081,24.7391a39.03,39.03,0,0,1,6.8557,1.5122c13.1136,4.19,23.1646,11.7648,23.0312,32.6248-.1264,19.76-6.2425,42.7239-37.31,57.3882-16.7048,7.8849-47.6112,2.5675-49.942-9.3844C15.852,95.6438,33.002,92.5557,39.1005,80.1935c6.841-13.8675-.9466-16.8251,5.9511-39.3473C49.1176,27.57,62.1238,23.5106,73.8784,24.5714Z"/><path fill="#8db54d" d="M87.5959,28.2527a41.1956,41.1956,0,0,1,2.2107,14.5865c-.1228,19.21-6.0686,41.5345-36.2712,55.7906-9.4832,4.4762-23.6677,4.57-34.2859,1.5644a8.9916,8.9916,0,0,0-1.2063,6.6856c2.3308,11.952,33.2373,17.2694,49.9419,9.3845,31.0674-14.6643,37.1836-37.6281,37.31-57.3882C105.41,40.9521,98.002,32.84,87.5959,28.2527Z"/><ellipse cx="61.719" cy="16.712" fill="#5baf6b" rx="7.215" ry="13.347" transform="rotate(-57.405 61.72 16.711)"/><path fill="#3d7546" d="M73.5088,23.063l-6.6465-4.3188-.9365-5.3907a1,1,0,0,0-1.9707.3428l.6186,3.5608-6.4673-4.2024a1,1,0,1,0-1.09,1.6767l2.3943,1.5558-2.1267,1.0277a1,1,0,0,0,.8711,1.8008l3.2165-1.5543L72.4189,24.74a1,1,0,1,0,1.09-1.6767Z"/><path fill="#3d7546" d="M74.8,29.48a40.0369,40.0369,0,0,1,2.1928-7.2133,54.3949,54.3949,0,0,1,6.07-10.6065L79.7892,8a48.9318,48.9318,0,0,0-5.972,12.67,63.1667,63.1667,0,0,0-1.9282,8.6525Z"/><path fill="#32663c" d="M75.6536,21.1887a67.3143,67.3143,0,0,0-2.1883,8.2192L74.8,29.48a40.0193,40.0193,0,0,1,2.1926-7.2133,54.4006,54.4006,0,0,1,6.07-10.6065L81.2373,9.6193A55.635,55.635,0,0,0,75.6536,21.1887Z"/><path fill="#79993c" d="M74.0605,30.8071a17.7586,17.7586,0,0,1-6.0751-1.0322,1,1,0,0,1,.68-1.8809,17.2558,17.2558,0,0,0,9.2618.5245,1,1,0,0,1,.3828,1.9628A22.2352,22.2352,0,0,1,74.0605,30.8071Z"/></svg>