<?xml version="1.0" encoding="iso-8859-1"?>
<!-- Generator: Adobe Illustrator 22.1.0, SVG Export Plug-In . SVG Version: 6.00 Build 0)  -->
<svg version="1.1" id="Layer_1" xmlns="http://www.w3.org/2000/svg" xmlns:xlink="http://www.w3.org/1999/xlink" x="0px" y="0px"
	 viewBox="0 0 48 48" style="enable-background:new 0 0 48 48;" xml:space="preserve">
<circle style="fill:#455A64;" cx="17" cy="37" r="5"/>
<path style="fill:#4DD0E1;" d="M5,28h9c0.552,0,1-0.448,1-1v0c0-0.552-0.448-1-1-1H5c-0.552,0-1,0.448-1,1v0C4,27.552,4.448,28,5,28
	z"/>
<circle style="fill:#455A64;" cx="41" cy="37" r="5"/>
<circle style="fill:#00ACC1;" cx="41" cy="37" r="2"/>
<circle style="fill:#00ACC1;" cx="17" cy="37" r="2"/>
<path style="fill:#546E7A;" d="M41,38c-0.4,0-0.7-0.2-0.9-0.6l-4-8c-0.2-0.5,0-1.1,0.4-1.3c0.5-0.2,1.1,0,1.3,0.4l4,8
	c0.2,0.5,0,1.1-0.4,1.3C41.3,38,41.2,38,41,38z"/>
<path style="fill:#00ACC1;" d="M20,37h14c0-4.9,3.6-6.8,6.7-7.2C42.1,29.7,42,28,42,28c-2-7-7-12-9-14l-2,0
	c2.917,5.64,3.777,20.278-4,20h-7V37z"/>
<path style="fill:#00ACC1;" d="M25,25H15c-2,2-4,6-4,9c2,1,9,0,9,0h7C23.125,34,22,28.473,25,25z"/>
<path style="fill:#FFC107;" d="M35,11v4c1.1,0,2-0.9,2-2S36.1,11,35,11z"/>
<path style="fill:#37474F;" d="M27.25,25.8c0,0.258-0.139,0.494-0.37,0.608c-0.698,0.343-2.415,0.992-5.43,0.992
	c-4.1,0-7.2-1.4-7.2-1.4v-0.5c0-1.381,1.119-2.5,2.5-2.5h7.7C25.99,23,27.25,24.26,27.25,25.8L27.25,25.8z"/>
<path style="fill:#4DD0E1;" d="M31.008,14.377C32.263,14.782,33.598,14.98,35,15v-4c-1.393,0.019-2.743,0.243-4.052,0.661
	C30.373,11.844,30,12.403,30,13.006v0C30,13.634,30.411,14.185,31.008,14.377z"/>
<path style="fill:#4DD0E1;" d="M40,34l7.337-1c-1.107-2.38-3.498-4-6.337-4c-3.92,0-7,3.08-7,7c0,0.926,0.174,1.804,0.49,2.606"/>
<path style="fill:#4DD0E1;" d="M17,30c-3.92,0-8,3-9,7h16C24,33.08,20.92,30,17,30z"/>
<path style="fill:#455A64;" d="M25,15h7c0.552,0,1-0.448,1-1v0c0-0.552-0.448-1-1-1h-7c-0.552,0-1,0.448-1,1v0
	C24,14.552,24.448,15,25,15z"/>
<rect x="1" y="15" style="fill:#FFB74D;" width="13" height="11"/>
<rect x="1" y="14" style="fill:#BCAAA4;" width="13" height="3"/>
</svg>