<svg xmlns="http://www.w3.org/2000/svg"  viewBox="0 0 68 68" width="53px" height="53px"><path fill="#5e7599" d="M50.6728172,5.4991627c-1.062645,0.997961-2.6034279,2.9563141-2.5750427,5.904809l-4.7310181-2.7104015 c0,0,3.8248863-7.4035788,6.4405899-6.6380463c0.04039,0.0118625,0.0799789,0.0239935,0.1187744,0.0363817 C51.4010201,2.5628824,51.8014183,4.4392562,50.6728172,5.4991627z"/><path fill="#ffd80c" d="M50.6918793,49.6957741c-0.63834,1.0711632-1.3254166,2.1557999-2.0558128,3.2594528 C40.8944283,64.3865051,26.117054,68.9011078,12.6408606,64.1024628c-2.3533907-0.8385696-4.490303-2.2234879-6.1160026-4.1196861 c-2.4263644-2.8266296-3.3676944-6.2052231-2.7049861-10.178833c0.5518279-3.3027763,2.5561986-6.143013,5.3423481-7.9959526 c2.8456507-1.8908501,4.9582605-4.9853363,6.2025146-9.4999428C17.9453011,17.4657555,24.7753925,8.0957794,35.270752,7.3870411 c4.8230095-0.3246512,9.5486145,1.3254166,13.2814407,4.3793564c0.1758652,0.1433067,0.3517303,0.29216,0.52211,0.4408817 C59.4290009,21.2663403,60.259449,33.6605415,50.6918793,49.6957741z"/><path fill="#ffbe00" d="M48.6360664,52.9552269C40.8944283,64.3865051,26.117054,68.9011078,12.6408606,64.1024628 c-1.4526091-0.5166245-2.8239889-1.2443161-4.0412331-2.1721077c12.5808268,3.1242714,25.7216721-1.5337067,32.8682213-12.0858612 c11.6910095-17.6257324,11.4827194-31.0830383,0.4382401-40.7479477c-0.559948-0.4896193-1.1442032-0.9467459-1.7474098-1.3687391 c3.2757034,0.6762466,6.3540115,2.2343874,8.9156227,4.4794731 C60.1187859,21.8721886,60.3270721,35.3294945,48.6360664,52.9552269z"/><path fill="#ffbe00" d="M50.6918793,49.6957741c-0.2975731-0.6493034-0.616745-1.2822304-0.9575729-1.90168 c-2.0422783-3.705883-3.3324966-7.6496429-3.8329468-11.720726c-0.5247498-4.3117332-0.5843163-8.5504265-0.1704483-12.5970745 c0.3219452-3.1458664,1.0819969-6.3756046,2.3236084-9.8812561c0.1757965-0.4978075,0.3597832-1.0982409,0.497673-1.82864 c0.1758652,0.1433067,0.3517303,0.29216,0.52211,0.4408817C59.4290009,21.2663403,60.259449,33.6605415,50.6918793,49.6957741z"/><path fill="#4cc66e" d="M58.0548439,54.3564568c-0.7492867,1.0197868-2.3533249,0.7438736-2.6860313-0.4761429 c-0.7898331-2.9024467-1.8826599-5.4396935-3.0268631-7.5198097c-1.8204498-3.3027802-3.0269318-6.9085464-3.4867668-10.6495628 c-0.497673-4.0763664-0.5598831-8.0555229-0.1649666-11.9344311c0.3218803-3.1404514,1.1144218-6.210638,2.1694069-9.1861229 c0.9872932-2.7914982,1.3470764-6.2728472,0.2082863-11.4069052 C68.0389252,22.5323219,66.9434586,42.2434578,58.0548439,54.3564568z"/><path fill="#14a142" d="M53.78339,13.5664253c1.1679688,2.7319336,1.9943848,5.5874023,2.659668,8.4726563 c0.6726074,2.8862305,1.114502,5.8232422,1.4194336,8.7753906c0.2836914,2.9541016,0.3466797,5.9350586,0.1901855,8.9033203 c-0.1540527,2.9672852-0.6157227,5.9282227-1.4169922,8.78125c-0.0236816-2.9726563-0.0053711-5.8798828-0.1435547-8.7929688 c-0.0930176-1.4536133-0.1257324-2.9067383-0.2587891-4.3564453l-0.1506348-2.175293l-0.2102051-2.171875 C55.340519,25.2021675,54.5287514,19.4399605,53.78339,13.5664253z"/><path fill="#fff" d="M31.6478672,19.4927864c-2.2914314,2.2914333-5.1368828,3.1657219-6.3528309,1.9496956 c-1.2142181-1.2142944-0.3398685-4.0598087,1.9515629-6.351243s5.1401501-3.1689882,6.3543644-1.9546938 C34.8169136,14.3525715,33.9392967,17.2013531,31.6478672,19.4927864z" opacity=".3"/></svg>