<svg xmlns="http://www.w3.org/2000/svg"  viewBox="0 0 53 53" width="53px" height="53px"><path fill="#ededed" d="M4.2091022,27.601429c-0.4098191,0-0.8061829-0.2197647-1.0130544-0.6054764 c-1.1918943-2.2245712-1.0657532-4.8505516,0.3290884-6.8531132c1.0500557-1.5080891,3.7107942-3.9199085,9.7566032-3.0733604 c2.0558214,0.2847977,4.118371,0.8073044,6.1125231,1.3118687c4.3201962,1.0932236,8.400444,2.1270218,12.4487362,0.9676437 c4.6010704-1.3185978,6.1153259-4.6722717,6.013855-7.1435184c-0.0953102-2.3344536-1.4666023-4.1049156-3.4927101-4.5096884 c-1.1548958-0.2298574-2.5200233,0.346468-3.4007683,1.4363279c-0.7417107,0.9171867-0.9603558,1.9835005-0.5847359,2.8535948 c0.2517223,0.5819311-0.0162582,1.2580481-0.5987492,1.5092096c-0.5813713,0.2489185-1.258049-0.016819-1.5092106-0.5987501 c-0.7204056-1.6673069-0.3812275-3.6149273,0.907095-5.208231c1.4251156-1.7614923,3.6351109-2.6427989,5.6359921-2.2436318 c3.0542984,0.6099629,5.1992607,3.289763,5.3377342,6.6669841c0.1351128,3.3043394-1.7940102,7.7590866-7.6761131,9.444334 c-4.6425571,1.3331718-9.2189617,0.1715508-13.644556-0.9485836c-1.934166-0.4888668-3.9339247-0.9956741-5.8641653-1.2636547 c-3.5269079-0.4877453-6.2823935,0.2803154-7.5572605,2.1113243c-0.8986859,1.2905655-0.9710069,2.9982376-0.1894922,4.4558678 c0.2993751,0.5595074,0.0891399,1.2546864-0.4698057,1.5551815C4.5779948,27.5577011,4.3918667,27.601429,4.2091022,27.601429z"/><path fill="#ededed" d="M34.6837006,30.827282c-3.0425282,0-5.8641663-0.8185177-8.4705238-1.5742435 c-3.380024-0.9799767-6.300333-1.8231602-9.0681534-0.8712158c-0.6004314,0.2063122-1.2541237-0.1121254-1.4598732-0.7108746 c-0.206872-0.5998726,0.1115646-1.2535648,0.7108746-1.4598751c3.4585133-1.1941376,6.8575974-0.2063103,10.4568272,0.8364563 c4.0320339,1.1694698,8.2008629,2.3770618,12.8064194,0.529232c3.3547935-1.3477478,5.716156-4.4446545,5.7425079-7.5325928 c0.0056076-0.6301441,0.5185814-1.138073,1.1481667-1.138073c0.0033607,0,0.0067253,0,0.0100899,0 c0.6340714,0.0056057,1.1436806,0.5236263,1.138073,1.1582565c-0.0347595,4.0567017-2.9214287,7.9317589-7.1833229,9.6427956 C38.4875565,30.5211792,36.5444221,30.827282,34.6837006,30.827282z"/><path fill="#ededed" d="M29.4592094,40.0888481c-3.98382,0-6.9052505-1.63591-9.3546314-3.007206 c-1.008009-0.5639915-1.9599552-1.0965881-2.8664894-1.4475403c-3.7494783-1.4486618-8.301774-0.5684776-10.5398006,1.1223755 c-0.7686205,0.579689-1.1818027,1.2087135-1.1347103,1.7267342c0.0583053,0.6312675-0.4070153,1.1896515-1.0382824,1.2479591 c-0.6419184,0.0627899-1.1902122-0.4070168-1.247957-1.0394058c-0.123338-1.3443832,0.5998716-2.6831627,2.0373209-3.7685394 c2.7005439-2.0395622,8.0881748-3.2348194,12.7509155-1.4307213c1.058466,0.4092598,2.0799294,0.9810982,3.1608181,1.5854568 c3.0470123,1.7054291,6.1960583,3.469162,11.1531277,2.3860283c0.6183701-0.1323051,1.2311363,0.2556496,1.3668098,0.8757019 c0.1351128,0.6200562-0.257328,1.2322617-0.8768234,1.3668098C31.6507034,39.973362,30.5176754,40.0888481,29.4592094,40.0888481z"/><path fill="#ededed" d="M38.0446625,47.6505966c-2.6601791,0-5.369133-0.5819321-7.5701561-1.0539818 c-0.9373684-0.2007027-1.7469158-0.3745003-2.415184-0.4742889c-3.870573-0.5808105-7.9048481-0.2993774-11.6621761,0.8084221 c-0.6099625,0.1805229-1.2468348-0.1670647-1.4262362-0.7759056c-0.1794004-0.6077232,0.1676273-1.2468376,0.7759085-1.426239 c4.0763245-1.2042274,8.450901-1.5069656,12.6522446-0.8779411c0.7400284,0.1110039,1.6224575,0.3004951,2.5570221,0.5012016 c4.534359,0.972126,10.7427483,2.3064194,13.6742706-1.8175545c0.3683319-0.5146599,1.0842514-0.6391182,1.6011505-0.269104 c0.5168991,0.3666496,0.6374359,1.0842552,0.2702255,1.6011543C44.4161949,46.7973213,41.2660294,47.6505966,38.0446625,47.6505966 z"/><path fill="#17be66" d="M46.3094597,34.7153053c-7.8171577-4.0818729-9.6128426,3.3037071-8.1498184,5.0699615 C41.0081062,43.2242241,43.1506729,35.609108,46.3094597,34.7153053z"/><path fill="#17be66" d="M50.6169395,9.180728c-7.8171577-4.0818734-9.6128426,3.3037062-8.1498184,5.0699625 C45.3155861,17.6896458,47.4581528,10.0745316,50.6169395,9.180728z"/><path fill="#17be66" d="M24.6681328,16.0303822c0.3030128-8.8133068-7.1333504-7.2411051-8.0939541-5.1585188 C14.7038116,14.9266424,22.4970722,13.5680676,24.6681328,16.0303822z"/></svg>