<svg xmlns="http://www.w3.org/2000/svg"  viewBox="0 0 48 48" width="48px" height="48px"><path fill="#ffe082" d="M38.603,19.452c-0.072-0.261-0.146-0.526-0.245-0.779c-1.727-4.892-6.658-8.272-12.281-7.584	c-5.267,0.646-9.482,4.996-9.991,10.279c-0.222,2.317,0.25,4.504,1.227,6.389c0.703,1.356,1.328,2.755,1.663,4.247	c0.334,1.492,0.538,3.013,0.619,4.54c0.032,0.622,0.045,1.246,0.036,1.869c-0.049,3.517,2.833,6.558,6.549,6.587	c0.026,0,0.05,0,0.076,0c7.411,0,13.418-8.253,13.418-18.434C39.675,24.036,39.276,21.645,38.603,19.452z"/><path fill="none" stroke="#18193f" stroke-linecap="round" stroke-linejoin="round" stroke-miterlimit="10" stroke-width="3" d="M14.877,29.147c0.226,1.219,0.369,2.453,0.434,3.69c0.033,0.643,0.047,1.289,0.037,1.933	c-0.051,3.638,2.931,6.784,6.775,6.814c0.027,0,0.052,0,0.079,0c7.666,0,13.881-8.537,13.881-19.069	c0-1.587-0.152-3.121-0.427-4.589"/><path fill="none" stroke="#18193f" stroke-linecap="round" stroke-linejoin="round" stroke-miterlimit="10" stroke-width="3" d="M33.454,11.794c-2.373-3.623-6.665-5.872-11.437-5.288c-5.449,0.668-9.809,5.168-10.335,10.633	c-0.186,1.939,0.098,3.79,0.749,5.459"/><path fill="none" stroke="#18193f" stroke-linecap="round" stroke-linejoin="round" stroke-miterlimit="10" stroke-width="3" d="M24.501,5.025c0.758-1.427,1.911-2.612,3.314-3.408"/></svg>