<svg xmlns="http://www.w3.org/2000/svg"  viewBox="0 0 64 64" width="64px" height="64px"><path fill="#79b24d" d="M50.64,9.78c3.36-2.87,9.33-1.4,9.33-1.4,0,0,.53,6.13-2.83,9s-9.33,1.4-9.33,1.4c0,0-.53-6.13,2.83-9Z"/><path fill="#4f823f" d="M44.28,25.31c-.13,0-.27-.03-.39-.08-.51-.22-.74-.81-.52-1.31,2.02-4.71,5.58-8.71,10.04-11.25l.39-.22c.48-.28,1.09-.11,1.36,.37,.27,.48,.11,1.09-.37,1.36l-.39,.22c-4.08,2.33-7.34,5.99-9.19,10.3-.16,.38-.53,.61-.92,.61Z"/><path fill="#79b24d" d="M11.36,38.52c3.36-2.87,9.33-1.4,9.33-1.4,0,0,.53,6.13-2.83,9s-9.33,1.4-9.33,1.4c0,0-.53-6.13,2.83-9Z"/><path fill="#4f823f" d="M5,54.05c-.13,0-.27-.03-.39-.08-.51-.22-.74-.81-.52-1.31,2.02-4.71,5.58-8.71,10.04-11.25l.39-.22c.48-.27,1.09-.11,1.36,.37,.27,.48,.11,1.09-.37,1.36l-.39,.22c-4.08,2.33-7.34,5.99-9.19,10.3-.16,.38-.53,.61-.92,.61Z"/><path fill="#d3dce5" d="M37.01,19.81c-2.38,0-4.21-.34-7.21-.89-1.5-.28-3.3-.61-5.64-.98-7.99-1.29-12.02-1.63-17.08,.53-.51,.22-1.1-.02-1.31-.53-.22-.51,.02-1.1,.53-1.31,5.51-2.36,9.98-1.99,18.18-.67,2.35,.38,4.17,.71,5.68,.99,4.43,.82,6.08,1.12,10.85,.6,.55-.06,1.04,.34,1.1,.88,.06,.55-.34,1.04-.88,1.1-1.69,.19-3.03,.27-4.23,.27Z"/><path fill="#d3dce5" d="M47.09,30.85c-5.84,0-11.81-1.31-16.98-2.44-3.34-.73-6.22-1.36-8.54-1.54-8.17-.62-10.65-.53-16.18,1.84-.51,.22-1.1-.02-1.31-.53-.22-.51,.02-1.1,.53-1.31,5.9-2.52,8.68-2.63,17.12-1.99,2.46,.19,5.4,.83,8.82,1.58,7.88,1.73,17.69,3.87,25.63,.94,.52-.19,1.09,.07,1.28,.59,.19,.52-.07,1.09-.59,1.28-3.1,1.14-6.41,1.58-9.77,1.58Z"/><path fill="#d3dce5" d="M44.37,39.23c-3.24,0-6.37-.35-8.79-1.05-3.6-1.05-6.42-1.61-8.64-1.71-.55-.02-.98-.49-.95-1.04,.02-.55,.51-.99,1.04-.95,3.17,.14,6.72,1.09,9.11,1.79,4.43,1.29,13.05,1.42,18.81-.46,.53-.17,1.09,.12,1.26,.64,.17,.53-.12,1.09-.64,1.26-3.11,1.01-7.23,1.54-11.2,1.54Z"/><path fill="#d3dce5" d="M44.79,47.88c-5.4,0-9.15-.94-12.79-1.86l-.55-.14c-2.22-.56-4.8-.89-6.01-.89-.55,0-1-.45-1-1s.45-1,1-1c1.31,0,4.03,.33,6.49,.95l.55,.14c3.64,.91,7.38,1.85,12.84,1.79,2.76-.03,7.84-.89,12.23-2.46,.52-.19,1.09,.08,1.28,.6,.19,.52-.08,1.09-.6,1.28-4.12,1.48-9.42,2.53-12.88,2.58-.19,0-.37,0-.56,0Z"/><path fill="#d3dce5" d="M44.84,57.01c-3.65,0-7.32-.49-10.54-1.5-3.75-1.18-9.77-2-14.97-2.05-.55,0-1-.46-.99-1.01,0-.55,.45-.99,1-.99h0c5.38,.05,11.63,.91,15.55,2.14,7.57,2.38,17.74,1.72,23.65-1.53,.48-.26,1.09-.09,1.36,.4,.27,.48,.09,1.09-.4,1.36-3.8,2.08-9.21,3.18-14.67,3.18Z"/></svg>