<svg xmlns="http://www.w3.org/2000/svg"  viewBox="0 0 48 48" width="48px" height="48px" baseProfile="basic"><path fill="#6be3a2" d="M27.899,8.248c-2.658,0-4.849,0.223-7.009,0.442C19.315,8.85,17.828,9,16.419,9	c-2.088,0-4.658-0.288-7.888-2.425L4.891,4.166c-0.284-0.188-0.645-0.218-0.959-0.08C3.62,4.226,3.4,4.514,3.35,4.852L2.704,9.17	C1.47,17.42,3.068,24.601,7.327,29.937C11.925,35.697,19.424,39,27.899,39c8.479,0,15.376-6.897,15.376-15.376	S36.378,8.248,27.899,8.248z"/><path fill="#324561" d="M41.701,46c-0.073,0-0.147-0.008-0.222-0.024c-0.538-0.122-0.876-0.657-0.755-1.196	c1.786-7.908,1.582-13.294-0.623-16.464c-2.479-3.565-7.491-4.238-12.799-4.951c-5.403-0.726-11.528-1.548-15.979-5.627	c-0.407-0.374-0.435-1.006-0.062-1.413c0.373-0.406,1.005-0.434,1.413-0.062c3.987,3.655,9.531,4.4,14.894,5.12	c5.756,0.773,11.192,1.503,14.175,5.791c2.578,3.708,2.874,9.443,0.932,18.047C42.57,45.685,42.158,46,41.701,46z"/><path fill="#324561" d="M24.473,30.363c-0.854,0-1.765-0.121-2.747-0.401c-0.531-0.152-0.839-0.705-0.688-1.236	c0.153-0.532,0.71-0.837,1.236-0.687c3.448,0.983,5.773-0.463,8.237-1.995c2.115-1.315,4.304-2.672,7.112-2.295	c0.547,0.074,0.931,0.578,0.857,1.125s-0.567,0.932-1.125,0.858c-2.093-0.281-3.808,0.78-5.789,2.011	C29.562,28.988,27.351,30.363,24.473,30.363z"/><path fill="#324561" d="M29.335,23.601c-0.103,0-0.207-0.016-0.31-0.05c-2.548-0.83-3.557-2.555-4.367-3.941	c-0.743-1.27-1.329-2.273-2.91-2.686c-0.535-0.14-0.855-0.686-0.716-1.22c0.14-0.535,0.693-0.854,1.22-0.715	c2.385,0.622,3.313,2.21,4.133,3.611c0.77,1.317,1.436,2.455,3.26,3.049c0.525,0.171,0.812,0.735,0.642,1.26	C30.148,23.332,29.757,23.601,29.335,23.601z"/></svg>