<svg xmlns="http://www.w3.org/2000/svg"  viewBox="0 0 100 100" width="100px" height="100px" baseProfile="basic"><circle cx="50" cy="50" r="36.5" fill="#fff4ce"/><path fill="none" stroke="#231f20" stroke-linecap="round" stroke-linejoin="round" stroke-miterlimit="10" d="M13.143,56.493 c0,0,4.348-2.805,11.028-5.184"/><path fill="none" stroke="#231f20" stroke-linecap="round" stroke-linejoin="round" stroke-miterlimit="10" d="M84.679,58.892 c3.459-4.625-0.263-7.954-3.236-7.86"/><path fill="none" stroke="#231f20" stroke-linecap="round" stroke-linejoin="round" stroke-miterlimit="10" d="M65,64.43 c0,0,7.77-0.992,13.859-4.862c5.921-3.763,11.593,2.722,5.131,7.441c-5.925,4.327-13.215,7.726-33.214,10.584 c-18.649,2.665-22.26,5.178-25.056,7.087"/><path fill="none" stroke="#231f20" stroke-linecap="round" stroke-linejoin="round" stroke-miterlimit="10" d="M27.5,55.525 c0,0,9-2,16.258,3.653c3.482,2.326,5.904,1.688,8.419,0.452c4.658-2.29,9.922,3.91,2.595,8.999s-18.281,6.196-18.281,6.196"/><g><path fill="none" stroke="#231f20" stroke-linecap="round" stroke-linejoin="round" stroke-miterlimit="10" d="M58.18,61.207 c1.601,0.084,2.91,0.112,3.819,0.112c12.008,0,21.866-9.201,22.909-20.938"/><path fill="none" stroke="#231f20" stroke-linecap="round" stroke-linejoin="round" stroke-miterlimit="10" d="M84.999,38.319 c0-0.863-0.048-1.737-0.145-2.619c-1.15-10.413-9.437-18.861-19.83-20.187c-5.044-0.644-9.818,0.35-13.866,2.52 c-4.628,2.481-9.842,3.864-15.069,3.362c-0.714-0.069-1.442-0.091-2.181-0.066c-8.867,0.311-15.907,7.837-15.907,16.709 c0,8.231,5.432,13.577,12.538,17.039"/><path fill="none" stroke="#231f20" stroke-linecap="round" stroke-linejoin="round" stroke-miterlimit="10" d="M81.999,38.319 c0,0,8.5-0.5,13,7l-3,2C91.999,47.319,88.999,42.319,81.999,38.319z"/></g></svg>