<svg xmlns="http://www.w3.org/2000/svg"  viewBox="0 0 48 48" width="48px" height="48px"><radialGradient id="KRJ5HNlC~rrWj4b6D2yP3a" cx="13.238" cy="2.912" r="55.437" gradientTransform="matrix(0 -.9762 .9747 0 .884 48.059)" gradientUnits="userSpaceOnUse"><stop offset=".245" stop-color="#78b324"/><stop offset=".262" stop-color="#78b324"/><stop offset=".379" stop-color="#76b023"/><stop offset=".456" stop-color="#70a722"/><stop offset=".523" stop-color="#66981f"/><stop offset=".573" stop-color="#5b871b"/><stop offset=".573" stop-color="#6ea321"/><stop offset=".581" stop-color="#6da121"/><stop offset=".673" stop-color="#608e1c"/><stop offset=".737" stop-color="#5b871b"/></radialGradient><path fill="url(#KRJ5HNlC~rrWj4b6D2yP3a)" d="M15.826,21.143C19.858,31.765,34.629,35.997,34.243,44c2.208-0.353,7.608-10.714,7.608-18.095	c0-20.199-19.825-19.617-24.944-18.803C16.907,7.102,13.578,15.221,15.826,21.143z"/><path fill="#dedede" d="M4.241,17.03c1.117-0.262,2.333-0.116,3.438,0.365c1.107,0.485,2.069,1.351,2.713,2.39 c0.657,1.007,0.978,2.299,1.231,3.244c0.299,1.008,0.709,1.978,1.201,2.907c0.978,1.861,2.331,3.533,3.925,4.967 c1.597,1.435,3.423,2.659,5.423,3.6l-0.009,0.029c-2.176-0.48-4.238-1.484-6.078-2.807c-1.837-1.333-3.427-3.054-4.589-5.054 c-0.573-1.003-1.035-2.07-1.388-3.17l-0.451-1.575c-0.146-0.483-0.349-0.939-0.574-1.376c-0.893-1.75-2.641-3.008-4.836-3.424 L4.241,17.03z"/><path fill="#dedede" d="M4.976,30.401c0.602-0.483,1.396-0.702,2.214-0.685c0.82,0.03,1.647,0.355,2.302,0.866 c0.642,0.485,1.179,1.254,1.502,1.747c0.383,0.538,0.827,1.029,1.308,1.483c0.956,0.913,2.096,1.649,3.341,2.213 c1.247,0.566,2.596,0.972,4.014,1.205l0.001,0.03c-1.432,0.26-2.931,0.139-4.37-0.24c-1.44-0.389-2.821-1.092-3.996-2.075 c-0.582-0.496-1.107-1.061-1.571-1.669l-0.613-0.856c-0.178-0.251-0.385-0.478-0.597-0.682c-0.832-0.833-2.018-1.308-3.498-1.249 L4.976,30.401z"/><linearGradient id="KRJ5HNlC~rrWj4b6D2yP3b" x1="35.795" x2="40.347" y1="8.856" y2="1.683" gradientTransform="rotate(-90 24 24.13)" gradientUnits="userSpaceOnUse"><stop offset=".4" stop-color="#6ba329"/><stop offset=".498" stop-color="#5f9125"/><stop offset=".837" stop-color="#395717"/><stop offset="1" stop-color="#2a4011"/></linearGradient><path fill="url(#KRJ5HNlC~rrWj4b6D2yP3b)" d="M6.915,4c0,0,0.11-0.031-0.915,0.774c0.186,1.775,7.193,0.191,14.365,4.869	c0.141,0.092,0.841,13.913,0.987,14c0.17,0.101-0.208-13.54-0.038-13.434c2.31,1.439,4.596,3.32,6.632,5.806	c0.129,0.158-0.847,15.018-0.72,15.18c0.157,0.201,1.29-14.434,1.444-14.224c1.276,1.733,2.437,3.736,3.418,6.054	c0.08,0.189-0.241,12.607-0.163,12.8c0.098,0.244,0.593-11.737,0.687-11.487c1.873,4.993,2.95,11.348,2.7,19.459	c0.612-8.185-0.397-14.693-2.349-19.867c-0.068-0.18,7.009,5.903,6.939,5.726c-0.065-0.163-7.277-6.586-7.343-6.746	c-0.999-2.407-2.207-4.509-3.547-6.346c-0.102-0.14,8.174,3.76,9.915,5.44c-2.851-2.941-10.457-6.16-10.574-6.309	c-2.064-2.618-4.182-4.44-6.529-6.023c-0.172-0.116,6.661,0.54,13.255,4.904c-6.413-4.904-14.249-5.628-14.38-5.711	C13.726,4.505,6.915,4,6.915,4z"/><radialGradient id="KRJ5HNlC~rrWj4b6D2yP3c" cx="32.139" cy="18.878" r="36.727" gradientUnits="userSpaceOnUse"><stop offset=".245" stop-color="#89b847"/><stop offset=".354" stop-color="#86b445"/><stop offset=".464" stop-color="#7da83f"/><stop offset=".573" stop-color="#6d9435"/><stop offset=".574" stop-color="#85b346"/><stop offset=".585" stop-color="#83b043"/><stop offset=".674" stop-color="#729f30"/><stop offset=".736" stop-color="#6c9929"/></radialGradient><path fill="url(#KRJ5HNlC~rrWj4b6D2yP3c)" d="M34.243,44c2.125,0,8.839-9.668,7.608-18.095c-2.01,7.422-4.868,10.098-17.49,12.347	C25.949,41.089,31.465,44,34.243,44z"/></svg>