<svg height="60" viewBox="0 0 60 60" width="60" xmlns="http://www.w3.org/2000/svg"><path d="M13.131 19.252a20.3 20.3 0 0 0 .157 2.089.6.6 0 0 0 .123.3 6.976 6.976 0 0 0 1.025 1.113 4.726 4.726 0 0 0 0-.505 16.222 16.222 0 0 1 .411-5.744c.184-.789.4-1.572.633-2.348a11.079 11.079 0 0 0 .489-3.13 3.829 3.829 0 0 0-.123-.91.8.8 0 0 0-.267-.4 1.3 1.3 0 0 0-.783-.361c-.044.212-.094.425-.131.641-.189 1.1-.353 2.207-.567 3.3-.261 1.344-.575 2.677-.752 4.037a16.335 16.335 0 0 0-.215 1.918z" fill="#344a3d"/><path d="M11.672 17.779c.231.213.27.591.654.79.025-.21.04-.341.057-.472a26.273 26.273 0 0 1 .441-3.147 42.639 42.639 0 0 0 .863-4.437 5.417 5.417 0 0 0 .023-1.756 8.6 8.6 0 0 0-2.58-.539c.051.3.074.545.134.78a6.6 6.6 0 0 1 .118 2.5c-.118.943-.269 1.883-.382 2.827a11.317 11.317 0 0 0-.072 2.7c.272.285.501.528.744.754z" fill="#778e76"/><path d="M7.889 12.629a8.239 8.239 0 0 0 .452 1.165c.356.661.762 1.3 1.151 1.937.053.089.114.2.27.113.119-1.121.257-2.252.356-3.386.108-1.221.179-2.445.267-3.668a.753.753 0 0 0-.19-.656 2.487 2.487 0 0 0-.955.093 9.6 9.6 0 0 0-1.619.66 5.542 5.542 0 0 0-.922.818 7.348 7.348 0 0 0 .44 1.161 9.821 9.821 0 0 1 .75 1.763z" fill="#344a3d"/><path d="M4.146 14.3a3.86 3.86 0 0 0 2.064 1.358c.641.18 1.3.289 2.122.466A11.048 11.048 0 0 0 7.3 14.055a4.833 4.833 0 0 1-.959-2.2c-.041-.3-.087-.608-.131-.912a1.183 1.183 0 0 0-.256-.686 1.256 1.256 0 0 0-.233.134 15.532 15.532 0 0 0-2 2.475 1.479 1.479 0 0 0-.113.225.561.561 0 0 0 .064.63c.153.198.32.379.474.579z" fill="#778e76"/><path d="M18.982 26.212a1.087 1.087 0 0 0 .892.826c-.021-.206-.03-.341-.05-.476a9.153 9.153 0 0 1 .339-4.06 26.731 26.731 0 0 0 .819-3.5 3.073 3.073 0 0 0-.546-2.472c-.062.174-.095.251-.116.332-.424 1.621-.88 3.234-1.257 4.866a9.649 9.649 0 0 0-.081 4.484z" fill="#344a3d"/><path d="M15.812 23.07a3.534 3.534 0 0 0 1.546 2.3c.143.073.24.233.371.335a2.519 2.519 0 0 0 .383.2c-.033-.665-.088-1.22-.082-1.775a17.124 17.124 0 0 1 .685-4.457c.045-.161.063-.328.1-.491.1-.434.217-.864.3-1.3q.282-1.4.538-2.8a.982.982 0 0 0-.1-.647 11.653 11.653 0 0 0-1.525-2.4c-.256-.294-.543-.562-.821-.836-.03-.03-.1-.021-.21-.04-.022.241-.047.48-.064.72a5.162 5.162 0 0 1-.03.583c-.138.742-.275 1.485-.443 2.221-.342 1.495-.684 2.986-.915 4.507a8.065 8.065 0 0 0 .267 3.88z" fill="#778e76"/><path d="M9.151 18.611a.5.5 0 0 0 .543-.1.779.779 0 0 0-.107-.23 5.4 5.4 0 0 0-2.66-1.518 5.713 5.713 0 0 1-3.37-1.741c-.092-.106-.209-.278-.451-.166a4.835 4.835 0 0 0-.112 1.27 6.5 6.5 0 0 0 2.971 1.75c1.058.261 2.122.501 3.186.735zM45.24 13.88a1.307 1.307 0 0 0 .432-.532l-.111-1.992c-.013-.22-.025-.439-.049-.658-.005-.041-.064-.076-.132-.152l-.518.229a27.222 27.222 0 0 0 .232 2.991c.006.034.077.062.146.114zM29.866 46.677a4.584 4.584 0 0 0-.685.187 19.564 19.564 0 0 1-2.569 1.026 2.974 2.974 0 0 0-.976.472 7.528 7.528 0 0 0-1.836 1.945 3.89 3.89 0 0 1-.538.748 7.9 7.9 0 0 1-1.426 1.41 2.835 2.835 0 0 0-.433.455h4.546a5.057 5.057 0 0 0 1.683-1.607 7.316 7.316 0 0 0 .741-1.5 14.08 14.08 0 0 1 1.412-2.849 1.518 1.518 0 0 0 .081-.287z" fill="#344a3d"/><path d="M13.469 46.059a19.78 19.78 0 0 0 1.725 1.583 1.089 1.089 0 0 0 1.359.275 1.625 1.625 0 0 1 .469-.058 21.13 21.13 0 0 1-2.854-3.359 10.67 10.67 0 0 0-1.956-2.049 4.514 4.514 0 0 0-.712 2.269 1.285 1.285 0 0 0 .207.118 4.305 4.305 0 0 1 1.762 1.221z" fill="#778e76"/><path d="M14.982 43.651c.248.3.544.556.8.848a4.759 4.759 0 0 1 .729.915 5.648 5.648 0 0 0 2.666 2.458 2.7 2.7 0 0 0 1.69.312 25.666 25.666 0 0 0 3.815-.951c.1-.034.231-.026.241-.237a1.72 1.72 0 0 0-.233-.151 18.161 18.161 0 0 1-5.277-3.813c-.6-.625-1.189-1.266-1.815-1.866a4.865 4.865 0 0 0-2.665-1.322l-.8-.121a6.572 6.572 0 0 0-1.711 1.993c.183.107.328.186.468.274a8.607 8.607 0 0 1 2.092 1.661zm3.5 6.116a1.486 1.486 0 0 0-.262-.077 26.233 26.233 0 0 1-5.384-.77 2.75 2.75 0 0 0-.934-.093 4.119 4.119 0 0 0 1.543 1.579c.463.31.938.6 1.4.912a1.384 1.384 0 0 0 1.428.166 3.54 3.54 0 0 0 .529-.248 7.981 7.981 0 0 0 1.68-1.469z" fill="#344a3d"/><path d="M22.99 49.086c-.571.119-1.144.234-1.71.376a2.638 2.638 0 0 0-.692.277 9.772 9.772 0 0 0-.966.663 11.426 11.426 0 0 1-2.122 1.431 7.644 7.644 0 0 0-.7.422 7.056 7.056 0 0 0 2.459.619 1.43 1.43 0 0 0 .788-.213 6.778 6.778 0 0 0 1.117-.872 17.822 17.822 0 0 0 2.016-2.649c-.088-.029-.144-.064-.19-.054z" fill="#778e76"/><path d="M13.418 48.323a3.938 3.938 0 0 0 1.361.021c-.886-.836-1.672-1.584-2.465-2.325-.184-.171-.388-.319-.586-.475-.107-.085-.214-.186-.409-.064a8.42 8.42 0 0 0 .157 2.284.636.636 0 0 0 .388.537 3.984 3.984 0 0 1 1.554.022z" fill="#344a3d"/><path d="M18.582 41.141c.619.684 1.287 1.324 1.929 1.987a23.66 23.66 0 0 0 2.889 2.288 4.714 4.714 0 0 0 3.622.958 1.433 1.433 0 0 0 .4-.115c.142-.064.345-.032.411-.233-.025-.045-.039-.115-.075-.13a15.722 15.722 0 0 1-4.767-3.368 34.023 34.023 0 0 0-2.617-2.228 6.343 6.343 0 0 0-2.323-1.121 7.721 7.721 0 0 0-1.236-.206.611.611 0 0 0-.675.383c.177.1.319.184.467.258a6.732 6.732 0 0 1 1.975 1.527zm8.032-3.01c.674.592 1.379 1.147 2.06 1.73a14.663 14.663 0 0 1 1.367 1.239 7.849 7.849 0 0 0 3.439 2.013.473.473 0 0 0 .59-.227 11.588 11.588 0 0 1-3.57-2.753 23.256 23.256 0 0 0-2.148-1.877 16.93 16.93 0 0 0-5.28-2.477.262.262 0 0 0-.385.206.978.978 0 0 0 .2.117 9.607 9.607 0 0 1 3.727 2.029z" fill="#778e76"/><path d="M21 39.329a20.973 20.973 0 0 1 1.73 1.327c1.009.884 2 1.794 2.97 2.716a10.683 10.683 0 0 0 2.974 1.855 1.235 1.235 0 0 0 1.194-.064c.668-.35 1.358-.657 2.036-.988.147-.071.284-.164.538-.313-.268-.145-.408-.232-.556-.3a8.278 8.278 0 0 1-1.962-1.278c-1.411-1.192-2.82-2.387-4.246-3.56a6.368 6.368 0 0 0-1.319-.885 9.4 9.4 0 0 0-4.356-1.064 2.886 2.886 0 0 0-1.05.225 8.632 8.632 0 0 0-.891.461c-.186.108-.351.253-.585.425a8.043 8.043 0 0 0 .781.239A7.178 7.178 0 0 1 21 39.329z" fill="#344a3d"/><path d="M33.009 48.785c.468-.695.9-1.413 1.342-2.127a1.454 1.454 0 0 0 .191-.456 8.694 8.694 0 0 0 .244-2.129 14.049 14.049 0 0 0-2.306 1.219.508.508 0 0 0-.117.119 10.422 10.422 0 0 0-1.825 3.073A12.571 12.571 0 0 1 29.1 51.4a4.184 4.184 0 0 0-.245.487 3.933 3.933 0 0 0 .547-.2 17.42 17.42 0 0 0 1.882-1.09 7.239 7.239 0 0 0 1.725-1.812zm2.883-8.711a3.842 3.842 0 0 0 1.607.876l2.506-1.222c-.914-.236-1.7-.422-2.475-.642a14.081 14.081 0 0 1-2.845-1.2 5.833 5.833 0 0 0-1.608-.61c.445.469.774.834 1.123 1.178q.834.82 1.692 1.62zm3.79-14.466a9.068 9.068 0 0 1-2.455-2.939c-.262-.518-.519-1.039-.824-1.649a1.211 1.211 0 0 0-.249.886c.037.725.1 1.448.156 2.171a4.848 4.848 0 0 0 1.831 3.278 11.378 11.378 0 0 0 2.6 1.675 9.641 9.641 0 0 1 1.852.957c.057.044.152.038.3.072a36.889 36.889 0 0 0-.586-2.352c-.925-.739-1.781-1.413-2.625-2.099z" fill="#778e76"/><path d="M47.3 12.908a8.726 8.726 0 0 0 3.53-1.508c-.433-.45-1.063-.389-1.459-.737a6.359 6.359 0 0 0-2.071 2.245z" fill="#344a3d"/><path d="M46.182 12.666c.419-.461.739-.847 1.094-1.2.377-.37.789-.7 1.18-1.061.023-.021 0-.1-.01-.164a9.78 9.78 0 0 0-2.3.185 8.007 8.007 0 0 0 .036 2.24zm4.3 5.501a18.948 18.948 0 0 1-4.01 1.46 8.5 8.5 0 0 1-1.159.149 6.1 6.1 0 0 0-1.3.094l-.2 1.118a8.571 8.571 0 0 0 2.021-.321 18.435 18.435 0 0 0 6.454-2.71.526.526 0 0 0 .21-.674c-.698.305-1.367.569-2.016.884zm-4.3-3.322c.795-.267 1.6-.509 2.379-.817.856-.338 1.688-.735 2.529-1.112a1.264 1.264 0 0 0 .707-.609l-.347-.432a10.952 10.952 0 0 1-3.22 1.269.786.786 0 0 0-.308.13 2.207 2.207 0 0 1-1.269.364l-.69 1.17c.119.021.173.051.219.037z" fill="#778e76"/><path d="M44.245 19.1a2.981 2.981 0 0 0 .5 0c.409-.08.817-.168 1.221-.27a40.655 40.655 0 0 0 4.494-1.58c.594-.227 1.13-.6 1.707-.879a.955.955 0 0 0 .56-1.166c-.089-.495-.166-.992-.268-1.485a1.755 1.755 0 0 0-.17-.384c-1.143.492-2.219 1.032-3.348 1.422s-2.3.626-3.445.927a27.494 27.494 0 0 0-1.251 3.415z" fill="#344a3d"/><path d="M21.762 21.552c-.021-.245-.082-.486-.153-.895-.122.386-.2.616-.267.851-.125.458-.207.931-.368 1.376a11.079 11.079 0 0 0-.5 2.464 4.04 4.04 0 0 0 .187 1.739 1.3 1.3 0 0 0 .826.88c.322.118.64.34 1.05.182a12.958 12.958 0 0 1-.5-3.082 429.056 429.056 0 0 0-.275-3.515z" fill="#778e76"/><path d="M37.268 42.418a3.989 3.989 0 0 0-1.743 2.041c-.049.1-.006.248-.006.508.315-.338.543-.574.763-.819s.427-.514.657-.756.48-.465.724-.694.51-.435.732-.682c.2-.225.55-.307.672-.706-.155.06-.253.1-.351.136-.551.223-.928.712-1.448.972z" fill="#344a3d"/><path d="M12.141 26.53c.724-.035 1.451-.019 2.176-.051.411-.017.82-.084 1.272-.133a1.065 1.065 0 0 0-.817-.709c-.575-.092-1.146-.234-1.725-.277a17.761 17.761 0 0 0-1.846 0 10.988 10.988 0 0 1-5.058-.96c-.324-.151-.664-.269-1.135-.458a3.175 3.175 0 0 0 2.327 1.947c.354.083.707.17 1.065.228a17.688 17.688 0 0 0 3.741.413z" fill="#778e76"/><path d="M16.672 27.524c-1.9-.034-3.8.037-5.7-.146A15.756 15.756 0 0 1 8 26.912c-.158-.048-.325-.064-.633-.121a10.283 10.283 0 0 0 1.6 1.41 8.135 8.135 0 0 0 3.586 1.728 13.331 13.331 0 0 0 3.836.3 3.2 3.2 0 0 0 .66-.1l3.4-.9c.026-.007.037-.073.048-.1-.83-.417-1.662-.812-2.469-1.251a2.855 2.855 0 0 0-1.356-.354zM8.334 24.2a12.566 12.566 0 0 0 3.157.314c.861 0 1.723.023 2.612.037a2.14 2.14 0 0 0-.5-.717c-.825-.933-.631-.83-1.765-.845a21.864 21.864 0 0 1-3.584-.32A10.071 10.071 0 0 1 4.1 20.992a4.853 4.853 0 0 0-.536-.29 2.034 2.034 0 0 0 .474 1.283 4.939 4.939 0 0 0 1.909 1.457c.785.277 1.578.55 2.387.758zm36.455 7.614-.046-.071a.131.131 0 0 0 0 .028.188.188 0 0 0 .046.043zm5.856-10.377a1.023 1.023 0 0 0 .307-.279 74.34 74.34 0 0 0 1.085-1.686c.015-.024-.031-.088-.055-.151a.806.806 0 0 0-.227.052 19.827 19.827 0 0 1-3.2 1.436c-.656.229-1.331.406-1.988.635a6.342 6.342 0 0 1-2.379.381 3.724 3.724 0 0 0-.585.071 11.3 11.3 0 0 0-.2 2.9 24.462 24.462 0 0 0 5.269-2.1q.993-.617 1.973-1.259z" fill="#344a3d"/><path d="M46.887 25.227c.371-.441.777-.853 1.167-1.278a26.55 26.55 0 0 1-4.59 1.566 2.343 2.343 0 0 0-.044.45c.1.945.185 1.893.329 2.832.1.688.29 1.365.447 2.044a1.255 1.255 0 0 0 .532.847c0-.213.014-.427-.006-.638a6.052 6.052 0 0 1 .139-1.916 9.161 9.161 0 0 1 2.026-3.907z" fill="#778e76"/><path d="M42.54 16.978a6.71 6.71 0 0 1-.824-3.778c.014-.126.047-.282-.162-.392a2.574 2.574 0 0 0-.707.625c.243 1 .425 1.988.733 2.936a11.688 11.688 0 0 0 1.2 2.773 1.071 1.071 0 0 0 .174-1.345c-.154-.263-.278-.544-.414-.819zm-.619 9.54c.022.018.094-.024.13-.035l-.088-2.845c-.12-.107-.243-.22-.37-.328a6.648 6.648 0 0 1-1.751-2.228 2.4 2.4 0 0 0-.2-.366 10.079 10.079 0 0 1-1.489-3.445 2.242 2.242 0 0 0-.207-.394 12.731 12.731 0 0 0-1.279 2.57 16.253 16.253 0 0 0 2.412 4.362 14.591 14.591 0 0 0 2.842 2.709z" fill="#344a3d"/><path d="M39.988 19.838c.581 1.012 1.319 1.934 1.993 2.892.019.028.1.011.156.016.064-.466.108-.936.2-1.4.093-.489.228-.969.336-1.418a10.089 10.089 0 0 1-2.311-5.981 2.06 2.06 0 0 0-.314.2c-.379.411-.744.836-1.13 1.241a.887.887 0 0 0-.22.849 11.621 11.621 0 0 0 1.29 3.601zm-34.713.789a4.352 4.352 0 0 0 1.268.614c.527.072 1.023.269 1.537.37a24.794 24.794 0 0 0 4.012.427c-.49-.637-.942-1.162-1.32-1.736A1.5 1.5 0 0 0 10 19.7a4.081 4.081 0 0 0-.719-.217c-.768-.131-1.54-.246-2.312-.36a9.236 9.236 0 0 1-3.376-1.178 4.778 4.778 0 0 0-.512-.228c-.034.065-.056.088-.058.113-.009.082 0 .166-.016.247a1.627 1.627 0 0 0 .839 1.686 15.331 15.331 0 0 0 1.429.864zm39.56-6.041c-.586-1.081-.364-2.327-.577-3.546a6.417 6.417 0 0 0-1.874 1.114 8.559 8.559 0 0 0 1.064 5.289z" fill="#778e76"/><path d="M27.909 36.884a19.4 19.4 0 0 1 3.464 2.909 11.7 11.7 0 0 0 2.879 2.289 2.137 2.137 0 0 0 .532.239.755.755 0 0 0 .481-.031c.44-.23.858-.5 1.378-.809a7.985 7.985 0 0 1-.967-.609 15.779 15.779 0 0 1-1.9-1.776 8.285 8.285 0 0 0-2.585-2.11 10.592 10.592 0 0 0-1.907-.844 17.33 17.33 0 0 0-3.328-.354c.251.171.354.255.469.316a15.964 15.964 0 0 1 1.484.78z" fill="#344a3d"/><path d="M31.987 51.466a9.249 9.249 0 0 0 .782-.627 11.129 11.129 0 0 0 1.575-1.725 19.989 19.989 0 0 1 2.448-3.5.3.3 0 0 0 .048-.069 24.689 24.689 0 0 1 2.894-3.358 26.725 26.725 0 0 1 2.066-1.843 3.015 3.015 0 0 1 1.5-.7c.409-.085.813-.2 1.217-.307a10.087 10.087 0 0 1 2.547-.454 21.086 21.086 0 0 1 4.078.455 2.771 2.771 0 0 1 1.324.683 20.763 20.763 0 0 1 1.607 1.7 2.3 2.3 0 0 1 .539.837 3.247 3.247 0 0 0 .574 1.027 2.472 2.472 0 0 1 .419.717c.276.85.537 1.706.76 2.57a5.151 5.151 0 0 0 .792 1.655c.076.108.263.14.449.231a4.748 4.748 0 0 0 .113-1.3 11.267 11.267 0 0 0-.742-2.924 20.111 20.111 0 0 0-1.16-2.507 12.57 12.57 0 0 0-3.154-3.769 40.012 40.012 0 0 0-2.458-1.874 20.309 20.309 0 0 0-2.8-1.694c-.278-.132-.543-.289-.811-.441a.814.814 0 0 1-.269-.192 3.8 3.8 0 0 1-.768-1.366 5.257 5.257 0 0 1-.024-2 7.74 7.74 0 0 1 .916-2.861 9.974 9.974 0 0 1 1.59-1.95c.762-.743 1.543-1.467 2.325-2.189a13.677 13.677 0 0 0 2.276-2.683 9.471 9.471 0 0 0 1.292-6.927 2.329 2.329 0 0 0-.179-.558c-.252-.561-.53-1.111-.775-1.675a9.1 9.1 0 0 0-1.078-1.589.933.933 0 0 0-.333-.247 6.748 6.748 0 0 0-2.988-.732c-.893-.024-1.789.052-2.683.1a7.6 7.6 0 0 0-3.14.818 16.8 16.8 0 0 0-3.056 2.073 20.76 20.76 0 0 0-2.249 2.139 13.682 13.682 0 0 0-2.913 5.148 7.751 7.751 0 0 0-.325 2.555 16.38 16.38 0 0 0 .764 3.857 3.68 3.68 0 0 0 1 1.723 12.988 12.988 0 0 0 1.875 1.543 10.831 10.831 0 0 0 2.986 1.3 7.045 7.045 0 0 1 2.879 1.5 1.541 1.541 0 0 1 .67 1.136.55.55 0 0 1-.162 0 42.526 42.526 0 0 0-6.562-1.672c-.882-.152-1.769-.281-2.652-.428-.6-.1-1.2-.221-1.808-.322-1.3-.218-2.6-.412-3.887-.646-1.1-.2-2.2-.428-3.291-.674-.65-.147-1.284-.368-1.931-.529a.732.732 0 0 1-.6-.609 5.575 5.575 0 0 1-.177-1.662 3.76 3.76 0 0 0-.022-1.087 5.161 5.161 0 0 1-.083-1.249c0-.391-.019-.782-.013-1.173a21.966 21.966 0 0 0-.565-3.642 8.124 8.124 0 0 0-.307-1.306 13.682 13.682 0 0 0-.782-2.2 11.15 11.15 0 0 1-.638-1.456 9.267 9.267 0 0 0-1.666-2.695c-.457-.561-1.04-1.016-1.538-1.546A6.659 6.659 0 0 0 16.282 9.1c-.7-.417-1.4-.822-2.119-1.2a5.127 5.127 0 0 0-1.021-.37A9.319 9.319 0 0 0 12 7.283a7.53 7.53 0 0 0-1.913-.212 7.817 7.817 0 0 0-3.7 1.23 4.5 4.5 0 0 0-1.7 1.686 3.314 3.314 0 0 1-.9 1.084 5.787 5.787 0 0 0-1.577 1.938 9.259 9.259 0 0 0-.832 3.226 11.994 11.994 0 0 0 .073 3.015 14.794 14.794 0 0 0 .7 2.584 15.226 15.226 0 0 0 .983 2.221 11.418 11.418 0 0 0 1.735 2.467c.568.579 1.108 1.185 1.667 1.772a7.9 7.9 0 0 0 2.226 1.615A12.067 12.067 0 0 0 14 31.238a12.432 12.432 0 0 0 3.421-.285c.755-.2 1.533-.309 2.3-.439.993-.166 1.989-.317 2.986-.459a1.636 1.636 0 0 1 .579.039 6.162 6.162 0 0 0 1.72.327 1.148 1.148 0 0 1 .394.13 3.424 3.424 0 0 0 .47.17c1.48.286 2.958.579 4.441.839 1.321.231 2.648.431 3.975.631.8.12 1.61.2 2.411.323 1.019.158 2.043.308 3.049.529.84.185 1.663.452 2.485.71a11.194 11.194 0 0 1 2.4.96c.721.428 1.462.823 2.182 1.254.933.56 1.855 1.139 2.777 1.717a5 5 0 0 1 .459.387 1.6 1.6 0 0 1-.308.054 22.425 22.425 0 0 0-3.608-.153 8.24 8.24 0 0 0-3.673.707.8.8 0 0 1-.64.014c-1.069-.325-2.148-.614-3.212-.953a16.382 16.382 0 0 1-2.519-.919 26.852 26.852 0 0 0-4.068-1.554 20.1 20.1 0 0 0-2.033-.5c-.9-.2-1.829-.234-2.736-.372a16.51 16.51 0 0 0-3.85.1 16.5 16.5 0 0 0-3.428.8 8.938 8.938 0 0 0-2.067.907c-.648.389-1.3.762-1.955 1.146q-.253.15-.494.319c-.707.5-1.414 1-2.115 1.512a2.131 2.131 0 0 0-.491.442c-.391.545-.758 1.107-1.128 1.666a4.049 4.049 0 0 0-.551 1.4 15.367 15.367 0 0 0-.639 3.96 2.879 2.879 0 0 1-.078.5 3.726 3.726 0 0 0 .431 2.357 7.647 7.647 0 0 0 2.013 2.341 11.024 11.024 0 0 0 6.592 2.4 37.512 37.512 0 0 0 5.957-.114 11.437 11.437 0 0 0 2.2-.515c1.488-.509 2.762-1.45 4.2-2.05a.571.571 0 0 0 .138-.1zM20.436 16.523A3.062 3.062 0 0 1 20.982 19a26.731 26.731 0 0 1-.819 3.5 9.167 9.167 0 0 0-.337 4.063c.02.135.029.27.05.476a1.093 1.093 0 0 1-.892-.826 9.654 9.654 0 0 1 .079-4.491c.377-1.632.833-3.245 1.257-4.866.021-.082.054-.156.116-.333zm-3.969-1.843c.168-.736.3-1.479.443-2.221a5.162 5.162 0 0 0 .03-.583c.017-.24.042-.479.064-.72.111.019.18.01.21.04.278.274.565.542.821.836a11.653 11.653 0 0 1 1.525 2.4.982.982 0 0 1 .1.647q-.258 1.4-.538 2.795c-.088.436-.2.866-.3 1.3-.038.163-.056.33-.1.491a17.13 17.13 0 0 0-.685 4.457c-.006.555.049 1.11.082 1.775a2.5 2.5 0 0 1-.383-.193c-.131-.1-.228-.262-.371-.335a3.544 3.544 0 0 1-1.546-2.3 7.994 7.994 0 0 1-.26-3.883c.223-1.52.566-3.011.908-4.506zM14.663 10c.037-.216.087-.429.131-.641a1.3 1.3 0 0 1 .783.361.8.8 0 0 1 .267.4 3.829 3.829 0 0 1 .123.91 11.079 11.079 0 0 1-.489 3.13 38.894 38.894 0 0 0-.633 2.348 16.218 16.218 0 0 0-.411 5.744 4.726 4.726 0 0 1 0 .5 6.976 6.976 0 0 1-1.025-1.113.6.6 0 0 1-.123-.3 20.473 20.473 0 0 1-.157-2.089 16.557 16.557 0 0 1 .213-1.913c.177-1.36.491-2.693.752-4.037.216-1.1.38-2.2.569-3.3zM11 14.331c.113-.944.264-1.884.382-2.827A6.6 6.6 0 0 0 11.264 9c-.06-.235-.083-.479-.134-.78a8.66 8.66 0 0 1 2.58.539 5.417 5.417 0 0 1-.023 1.756 42.639 42.639 0 0 1-.863 4.437 26.8 26.8 0 0 0-.441 3.147c-.017.131-.032.262-.057.472-.384-.2-.423-.577-.654-.79s-.471-.469-.748-.748A11.387 11.387 0 0 1 11 14.327zM7.621 8.887a9.6 9.6 0 0 1 1.619-.66 2.487 2.487 0 0 1 .955-.093.753.753 0 0 1 .19.656c-.088 1.223-.159 2.447-.267 3.668-.1 1.134-.237 2.265-.356 3.386-.156.084-.217-.024-.27-.113-.389-.642-.8-1.276-1.151-1.937a7.74 7.74 0 0 1-.452-1.165 10.04 10.04 0 0 0-.75-1.763A7.348 7.348 0 0 1 6.7 9.705a5.542 5.542 0 0 1 .921-.818zm-4.014 4.2a1.479 1.479 0 0 1 .113-.225 15.645 15.645 0 0 1 2-2.475 1.256 1.256 0 0 1 .233-.134 1.178 1.178 0 0 1 .256.686c.044.3.09.608.131.912a4.814 4.814 0 0 0 .959 2.2 10.987 10.987 0 0 1 1.034 2.069c-.82-.177-1.481-.286-2.122-.466A3.869 3.869 0 0 1 4.146 14.3c-.154-.2-.321-.385-.475-.583a.561.561 0 0 1-.064-.628zm-.5 1.763c.242-.112.359.06.451.166a5.722 5.722 0 0 0 3.37 1.741 5.389 5.389 0 0 1 2.66 1.518.779.779 0 0 1 .107.23.5.5 0 0 1-.543.1 120.406 120.406 0 0 1-3.186-.737A6.472 6.472 0 0 1 3 16.118a4.783 4.783 0 0 1 .111-1.264zm-.1 3.225c.012-.081.007-.165.016-.247 0-.025.024-.048.058-.113a4.707 4.707 0 0 1 .513.228 9.236 9.236 0 0 0 3.376 1.178c.772.114 1.544.229 2.312.36A3.993 3.993 0 0 1 10 19.7a1.5 1.5 0 0 1 .771.6c.378.574.83 1.1 1.32 1.736a24.762 24.762 0 0 1-4.01-.421c-.514-.1-1.01-.3-1.537-.37a4.352 4.352 0 0 1-1.268-.614 15.478 15.478 0 0 1-1.429-.862 1.624 1.624 0 0 1-.841-1.686zm1.029 3.907a2.034 2.034 0 0 1-.474-1.282 4.8 4.8 0 0 1 .533.289 10.071 10.071 0 0 0 4.156 1.673 21.864 21.864 0 0 0 3.584.32c1.134.015.94-.088 1.765.845a2.067 2.067 0 0 1 .5.717c-.889-.014-1.751-.041-2.612-.037a12.566 12.566 0 0 1-3.157-.314c-.809-.2-1.6-.476-2.389-.753a4.9 4.9 0 0 1-1.906-1.453zm.972 1.962c.471.189.811.307 1.135.458a10.973 10.973 0 0 0 5.058.958 17.761 17.761 0 0 1 1.846 0c.579.043 1.15.185 1.725.277a1.067 1.067 0 0 1 .817.709c-.452.049-.861.116-1.272.133-.725.032-1.452.016-2.176.051a17.956 17.956 0 0 1-3.741-.407c-.358-.058-.711-.145-1.065-.228a3.174 3.174 0 0 1-2.327-1.947zm15.443 5.278c-1.132.3-2.266.609-3.4.9a3.2 3.2 0 0 1-.66.1 13.331 13.331 0 0 1-3.836-.3 8.071 8.071 0 0 1-3.586-1.728 10.06 10.06 0 0 1-1.6-1.41c.308.057.475.073.633.121a15.5 15.5 0 0 0 2.969.466c1.9.183 3.8.112 5.7.146a2.85 2.85 0 0 1 1.358.35c.807.439 1.639.834 2.469 1.251-.01.031-.016.097-.047.104zm1.04-1.255a1.3 1.3 0 0 1-.826-.88 4.038 4.038 0 0 1-.183-1.739 10.846 10.846 0 0 1 .5-2.464c.161-.445.243-.918.368-1.376.064-.235.145-.465.267-.851.071.409.132.65.153.895.1 1.171.187 2.343.275 3.515a13.374 13.374 0 0 0 .5 3.082c-.414.158-.732-.064-1.054-.182zm30.8-10.01a18.435 18.435 0 0 1-6.454 2.71 8.52 8.52 0 0 1-2.021.321l.2-1.118a6.082 6.082 0 0 1 1.3-.094 8.5 8.5 0 0 0 1.159-.149 18.948 18.948 0 0 0 4.01-1.46c.648-.315 1.32-.579 2.022-.884.075.308.044.51-.212.674zm-2.924-7.294c.4.348 1.026.287 1.459.737a8.726 8.726 0 0 1-3.533 1.508 6.41 6.41 0 0 1 2.078-2.245zm-3.221-.233a9.772 9.772 0 0 1 2.3-.185c.005.066.033.143.01.164-.391.357-.8.691-1.18 1.061-.355.349-.675.735-1.094 1.2a7.857 7.857 0 0 1-.032-2.24zm.5 3.208a2.207 2.207 0 0 0 1.269-.364.786.786 0 0 1 .308-.13 10.98 10.98 0 0 0 3.22-1.269l.347.432a1.264 1.264 0 0 1-.707.609c-.841.377-1.673.774-2.529 1.112-.779.308-1.584.55-2.379.817-.044.014-.1-.016-.219-.037zm2.29 1.118c1.129-.39 2.2-.93 3.348-1.422a1.755 1.755 0 0 1 .17.384c.1.493.179.99.268 1.485a.951.951 0 0 1-.56 1.166c-.577.276-1.113.652-1.707.879a40.655 40.655 0 0 1-4.494 1.582c-.4.1-.812.19-1.221.27a2.981 2.981 0 0 1-.5 0 27.551 27.551 0 0 1 1.251-3.421c1.15-.3 2.326-.535 3.45-.923zm-3.554-4.21c.068.076.127.111.132.152.024.219.036.438.049.658l.111 1.992a1.307 1.307 0 0 1-.432.532c-.069-.052-.142-.079-.146-.114a27.222 27.222 0 0 1-.232-2.991zm-3 1.608a6.43 6.43 0 0 1 1.874-1.114c.213 1.219-.009 2.465.577 3.546l-1.387 2.857a8.573 8.573 0 0 1-1.064-5.289zm-3.47 3.232c.386-.4.751-.83 1.13-1.241a2.06 2.06 0 0 1 .314-.2 10.092 10.092 0 0 0 2.311 5.981c-.108.449-.243.929-.336 1.418-.088.462-.132.932-.2 1.4-.055 0-.137.012-.156-.016-.674-.958-1.412-1.88-1.993-2.892a11.64 11.64 0 0 1-1.294-3.6.906.906 0 0 1 .226-.85zm-.972 1.491a2.242 2.242 0 0 1 .207.394 10.079 10.079 0 0 0 1.489 3.445 2.4 2.4 0 0 1 .2.366 6.648 6.648 0 0 0 1.751 2.228c.127.108.25.221.37.328l.088 2.845c-.036.011-.108.053-.13.035a14.727 14.727 0 0 1-2.846-2.709 16.144 16.144 0 0 1-2.412-4.362 12.729 12.729 0 0 1 1.285-2.57zm4.646 13.11a9.641 9.641 0 0 0-1.852-.957 11.378 11.378 0 0 1-2.6-1.675 4.848 4.848 0 0 1-1.834-3.278 68.414 68.414 0 0 1-.156-2.171 1.211 1.211 0 0 1 .249-.886c.3.61.562 1.131.824 1.649a9.068 9.068 0 0 0 2.455 2.939c.845.686 1.7 1.36 2.624 2.1.2.7.4 1.5.586 2.352-.145-.035-.24-.029-.3-.073zm.2-10.845a11.285 11.285 0 0 1-1.2-2.773c-.3-.944-.49-1.938-.733-2.936a2.574 2.574 0 0 1 .707-.625c.209.11.176.266.162.392a6.71 6.71 0 0 0 .824 3.778c.136.275.262.556.418.819a1.078 1.078 0 0 1-.182 1.345zm.819 2.754a3.724 3.724 0 0 1 .585-.071 6.342 6.342 0 0 0 2.379-.381c.657-.229 1.332-.406 1.988-.635a19.827 19.827 0 0 0 3.2-1.436.806.806 0 0 1 .227-.052c.024.063.07.127.055.151a74.34 74.34 0 0 1-1.085 1.686 1.023 1.023 0 0 1-.307.279q-.978.64-1.97 1.265a24.5 24.5 0 0 1-5.269 2.1 11.083 11.083 0 0 1 .2-2.906zm1.119 9.154c.02.211.006.425.006.638l.017.013v.042l.046.071c-.015-.014-.036-.026-.042-.043a.131.131 0 0 1 0-.028l-.016-.026v-.029a1.255 1.255 0 0 1-.532-.847c-.157-.679-.342-1.356-.447-2.044-.144-.939-.229-1.887-.329-2.832a2.343 2.343 0 0 1 .044-.45 26.55 26.55 0 0 0 4.59-1.566c-.39.425-.8.837-1.167 1.278a9.161 9.161 0 0 0-2.026 3.907 6.026 6.026 0 0 0-.146 1.916zM38.4 42.016c-.222.247-.488.454-.732.682s-.494.452-.724.694-.434.507-.657.756-.448.481-.763.819c0-.26-.043-.406.006-.508a4.011 4.011 0 0 1 1.743-2.041c.52-.26.9-.749 1.448-.972.1-.039.2-.076.351-.136-.127.399-.472.481-.672.706zm-3.713-4.133a14.081 14.081 0 0 0 2.845 1.2c.775.22 1.561.406 2.475.642L37.5 40.947a3.842 3.842 0 0 1-1.607-.876q-.857-.8-1.692-1.623c-.349-.344-.678-.709-1.123-1.178a5.828 5.828 0 0 1 1.604.613zm-5.4-1.741a10.592 10.592 0 0 1 1.907.844 8.285 8.285 0 0 1 2.585 2.11 16.107 16.107 0 0 0 1.9 1.776 7.985 7.985 0 0 0 .967.609c-.52.31-.938.579-1.378.809a.755.755 0 0 1-.481.031 2.137 2.137 0 0 1-.532-.239 11.7 11.7 0 0 1-2.879-2.289 19.4 19.4 0 0 0-3.464-2.909 15.964 15.964 0 0 0-1.484-.78c-.115-.061-.218-.145-.469-.316a17.3 17.3 0 0 1 3.323.354zm-6.211-.363a16.863 16.863 0 0 1 5.28 2.477 22.744 22.744 0 0 1 2.144 1.877 11.588 11.588 0 0 0 3.569 2.756.471.471 0 0 1-.59.227 7.843 7.843 0 0 1-3.44-2.016 14.8 14.8 0 0 0-1.367-1.242c-.681-.583-1.386-1.138-2.06-1.73A9.612 9.612 0 0 0 22.89 36.1a.978.978 0 0 1-.2-.117.26.26 0 0 1 .383-.206zm-5.009 1.686a8.632 8.632 0 0 1 .886-.465 2.886 2.886 0 0 1 1.052-.227 9.394 9.394 0 0 1 4.356 1.064 6.355 6.355 0 0 1 1.321.885c1.426 1.173 2.835 2.368 4.246 3.56a8.247 8.247 0 0 0 1.962 1.278c.148.066.288.153.556.3-.254.149-.391.242-.538.313-.678.331-1.368.638-2.036.988a1.242 1.242 0 0 1-1.194.064 10.741 10.741 0 0 1-2.978-1.851 104.52 104.52 0 0 0-2.97-2.716A20.973 20.973 0 0 0 21 39.331a7.174 7.174 0 0 0-2.744-1.2c-.238-.048-.467-.141-.781-.239a6.642 6.642 0 0 1 .587-.427zm-1.257 1.507a7.721 7.721 0 0 1 1.236.206 6.333 6.333 0 0 1 2.323 1.122c.9.71 1.788 1.433 2.617 2.229a15.739 15.739 0 0 0 4.767 3.371c.036.015.05.085.075.13-.066.2-.269.169-.411.233a1.4 1.4 0 0 1-.4.115 4.714 4.714 0 0 1-3.622-.958 23.953 23.953 0 0 1-2.889-2.288c-.642-.663-1.31-1.3-1.929-1.987a6.724 6.724 0 0 0-1.977-1.529c-.148-.074-.29-.159-.467-.258a.61.61 0 0 1 .677-.386zm-2.682.751.8.121a4.865 4.865 0 0 1 2.665 1.322c.626.6 1.213 1.241 1.815 1.866a18.166 18.166 0 0 0 5.274 3.813 1.72 1.72 0 0 1 .233.151c-.01.211-.144.2-.241.237a25.653 25.653 0 0 1-3.814.951 2.7 2.7 0 0 1-1.69-.312 5.663 5.663 0 0 1-2.67-2.458 4.713 4.713 0 0 0-.729-.915c-.258-.293-.552-.55-.8-.848a8.467 8.467 0 0 0-2.093-1.661c-.14-.088-.285-.167-.468-.274a6.61 6.61 0 0 1 1.714-1.993zm-1.916 2.724a10.67 10.67 0 0 1 1.956 2.053 21.13 21.13 0 0 0 2.854 3.363 1.625 1.625 0 0 0-.469.058 1.089 1.089 0 0 1-1.359-.275 19.78 19.78 0 0 1-1.725-1.583 4.305 4.305 0 0 0-1.769-1.225 1.285 1.285 0 0 1-.207-.118 4.527 4.527 0 0 1 .719-2.273zm-.736 5.317a8.42 8.42 0 0 1-.157-2.284c.195-.122.3-.021.409.064.2.156.4.3.586.475.793.741 1.579 1.489 2.465 2.325a3.938 3.938 0 0 1-1.361-.021 3.984 3.984 0 0 0-1.554-.022.635.635 0 0 1-.388-.537zm3.371 3.554c-.461-.311-.936-.6-1.4-.912a4.126 4.126 0 0 1-1.547-1.579 2.75 2.75 0 0 1 .934.093 26.029 26.029 0 0 0 5.384.77 1.486 1.486 0 0 1 .262.077 7.987 7.987 0 0 1-1.68 1.469 3.54 3.54 0 0 1-.529.248 1.4 1.4 0 0 1-1.424-.166zm5.2 1.339a1.43 1.43 0 0 1-.788.213 7.072 7.072 0 0 1-2.459-.619 7.644 7.644 0 0 1 .7-.422 11.426 11.426 0 0 0 2.126-1.429 9.734 9.734 0 0 1 .966-.659 2.645 2.645 0 0 1 .69-.277c.566-.142 1.139-.257 1.71-.376.046-.01.1.025.19.05a17.687 17.687 0 0 1-2.016 2.649 6.793 6.793 0 0 1-1.119.87zm7.583-1.344a5.057 5.057 0 0 1-1.683 1.607H21.4a2.791 2.791 0 0 1 .433-.455 7.9 7.9 0 0 0 1.426-1.41 3.89 3.89 0 0 0 .538-.748 7.6 7.6 0 0 1 1.838-1.945 2.974 2.974 0 0 1 .976-.472 19.578 19.578 0 0 0 2.57-1.026 4.148 4.148 0 0 1 .685-.187 1.528 1.528 0 0 1-.083.288 14.08 14.08 0 0 0-1.412 2.849 7.389 7.389 0 0 1-.742 1.5zm1.772.38a3.933 3.933 0 0 1-.547.2 4.264 4.264 0 0 1 .245-.487 12.521 12.521 0 0 0 1.438-2.922 10.411 10.411 0 0 1 1.825-3.084.508.508 0 0 1 .117-.119 14.282 14.282 0 0 1 2.306-1.219 8.5 8.5 0 0 1-.244 2.129 1.467 1.467 0 0 1-.191.461c-.44.714-.874 1.432-1.342 2.127a7.242 7.242 0 0 1-1.727 1.821 17.048 17.048 0 0 1-1.88 1.091z"/><path d="M44.743 31.743V31.7l-.017-.013v.029z" fill="#344a3d"/></svg>